<?xml version="1.0" encoding="UTF-8"?>
<svg xmlns="http://www.w3.org/2000/svg" version="1.1" xmlns:cc="http://creativecommons.org/ns#" xmlns:dc="http://purl.org/dc/elements/1.1/" xmlns:inkscape="http://www.inkscape.org/namespaces/inkscape" xmlns:rdf="http://www.w3.org/1999/02/22-rdf-syntax-ns#" xmlns:sodipodi="http://sodipodi.sourceforge.net/DTD/sodipodi-0.dtd" xmlns:svg="http://www.w3.org/2000/svg" xmlns:xlink="http://www.w3.org/1999/xlink" viewBox="0 0 662.2 663.5">
  <defs>
    <style>
      .cls-1 {
        fill-rule: evenodd;
      }

      .cls-1, .cls-2, .cls-3, .cls-4, .cls-5, .cls-6 {
        stroke-width: 0px;
      }

      .cls-1, .cls-5 {
        fill: #fff;
      }

      .cls-2 {
        fill: url(#linear-gradient);
      }

      .cls-3 {
        fill: #b3b3b3;
      }

      .cls-4 {
        fill: none;
      }

      .cls-6 {
        fill: url(#Degradado_sin_nombre);
      }

      .cls-7 {
        display: none;
      }
    </style>
    <linearGradient id="Degradado_sin_nombre" data-name="Degradado sin nombre" x1="-375" y1="785.7" x2="-374.4" y2="681.1" gradientTransform="translate(1745.5 3092.5) scale(3.8 -3.8)" gradientUnits="userSpaceOnUse">
      <stop offset="0" stop-color="#57d163"/>
      <stop offset="1" stop-color="#23b33a"/>
    </linearGradient>
    <linearGradient id="linear-gradient" x1="485.4" y1="466.1" x2="184.2" y2="193.2" gradientUnits="userSpaceOnUse">
      <stop offset="0" stop-color="#fec053"/>
      <stop offset=".3" stop-color="#f2203e"/>
      <stop offset=".6" stop-color="#b729a8"/>
      <stop offset="1" stop-color="#5342d6"/>
    </linearGradient>
  </defs>
  <g id="svg8" class="cls-7">
    <sodipodi:namedview id="namedview13" bordercolor="#666666" borderopacity="1" gridtolerance="10" guidetolerance="10" inkscape:current-layer="svg8" inkscape:cx="331.11719" inkscape:cy="378.64248" inkscape:pageopacity="0" inkscape:pageshadow="2" inkscape:window-height="715" inkscape:window-maximized="1" inkscape:window-width="1366" inkscape:window-x="-8" inkscape:window-y="-8" inkscape:zoom="0.85304745" objecttolerance="10" pagecolor="#ffffff" showgrid="false"/>
    <path id="path400-6" class="cls-3" d="M206.1,523.3l8.4,5c35.5,21.1,76.2,32.2,117.6,32.2h0c127.4,0,231.1-103.7,231.1-231.1,0-61.7-24-119.8-67.6-163.5-43.6-43.7-101.7-67.7-163.4-67.8-127.5,0-231.2,103.6-231.2,231,0,43.7,12.2,86.2,35.3,123l5.5,8.7-23.4,85.3,87.5-22.9ZM51.9,612.3l39.5-144.1c-24.3-42.2-37.1-90-37.1-139,0-153.3,124.8-278,278.1-278,74.4,0,144.2,29,196.7,81.5,52.5,52.5,81.4,122.4,81.4,196.7,0,153.3-124.8,278-278.1,278s0,0,0,0h-.1c-46.5,0-92.3-11.7-132.9-33.8l-147.4,38.7Z"/>
    <path id="path400-6-0" class="cls-5" d="M49,609.4l39.5-144.1c-24.3-42.2-37.1-90-37.1-139,0-153.3,124.8-278,278.1-278,74.4,0,144.2,29,196.7,81.5,52.5,52.5,81.4,122.4,81.4,196.7,0,153.3-124.8,278-278.1,278s0,0,0,0h-.1c-46.5,0-92.3-11.7-132.9-33.8l-147.4,38.7Z" sodipodi:nodetypes="ccccccssscc"/>
    <path id="path61-8" class="cls-4" d="M329.5,95.3c-127.5,0-231.2,103.6-231.2,231,0,43.7,12.2,86.2,35.3,123l5.5,8.7-23.4,85.3,87.5-22.9,8.4,5c35.5,21.1,76.2,32.2,117.6,32.2h0c127.4,0,231.1-103.7,231.1-231.1,0-61.7-24-119.8-67.6-163.5-43.6-43.7-101.7-67.7-163.4-67.8h0Z"/>
    <path id="path15" class="cls-6" d="M329.5,95.3c-127.5,0-231.2,103.6-231.2,231,0,43.7,12.2,86.2,35.3,123l5.5,8.7-23.4,85.3,87.5-22.9,8.4,5c35.5,21.1,76.2,32.2,117.6,32.2h0c127.4,0,231.1-103.7,231.1-231.1,0-61.7-24-119.8-67.6-163.5-43.6-43.7-101.7-67.7-163.4-67.8Z"/>
    <path id="path418-6" class="cls-1" d="M259.9,210.2c-5.2-11.6-10.7-11.8-15.6-12-4.1-.2-8.7-.2-13.3-.2s-12.2,1.7-18.5,8.7c-6.4,7-24.3,23.8-24.3,57.9s24.9,67.2,28.4,71.9c3.5,4.6,48.1,77,118.7,104.9,58.7,23.1,70.6,18.5,83.4,17.4,12.7-1.2,41.1-16.8,46.9-33,5.8-16.2,5.8-30.1,4.1-33-1.7-2.9-6.4-4.6-13.3-8.1-6.9-3.5-41.1-20.3-47.5-22.6-6.4-2.3-11-3.5-15.6,3.5-4.6,7-17.9,22.6-22,27.2-4.1,4.6-8.1,5.2-15.1,1.7-6.9-3.5-29.3-10.8-55.9-34.5-20.7-18.4-34.6-41.2-38.7-48.1-4.1-7-.4-10.7,3.1-14.2,3.1-3.1,6.9-8.1,10.4-12.2,3.5-4.1,4.6-7,6.9-11.6,2.3-4.6,1.2-8.7-.6-12.2-1.7-3.5-15.2-37.8-21.4-51.6"/>
  </g>
  <g id="Capa_2" data-name="Capa 2">
    <circle class="cls-2" cx="338" cy="332.5" r="280.5"/>
    <path class="cls-1" d="M464.8,329.6c0-70-56.7-126.8-126.8-126.8s-126.8,56.7-126.8,126.8,56.7,126.8,126.8,126.8,126.8-56.7,126.8-126.8h0ZM462.4,185.6c-11.3,0-20.4,9.2-20.4,20.4s9.1,20.4,20.4,20.4,20.4-9.1,20.4-20.4-9.2-20.4-20.4-20.4h0ZM234.4,156.3h207.2c38.4,0,69.7,31.4,69.7,69.7v207.2c0,38.4-31.3,69.7-69.7,69.7h-207.2c-38.3,0-69.7-31.3-69.7-69.7v-207.2c0-38.3,31.4-69.7,69.7-69.7h0ZM441.6,133.1h-207.2c-51.1,0-92.9,41.8-92.9,92.9v207.2c0,51.2,41.8,92.9,92.9,92.9h207.2c51.2,0,92.9-41.7,92.9-92.9v-207.2c0-51.1-41.7-92.9-92.9-92.9h0ZM237.5,329.6c0-55.5,45-100.5,100.5-100.5s100.5,45,100.5,100.5-45,100.4-100.5,100.4-100.5-45-100.5-100.4h0Z"/>
  </g>
</svg>